<mxfile host="app.diagrams.net" modified="2024-03-14T03:49:26.868Z" agent="Mozilla/5.0 (Windows NT 10.0; Win64; x64; rv:123.0) Gecko/20100101 Firefox/123.0" etag="zODlczs1IXwOKPl5gL1L" version="24.0.6" type="device">
  <diagram name="Page-1" id="wEoQQM8l3uzObE7j3usA">
    <mxGraphModel dx="677" dy="422" grid="1" gridSize="10" guides="1" tooltips="1" connect="1" arrows="1" fold="1" page="1" pageScale="1" pageWidth="1920" pageHeight="1200" math="0" shadow="0">
      <root>
        <mxCell id="0" />
        <mxCell id="1" parent="0" />
        <mxCell id="FmJL9uus3i0918vet48l-1" value="Parser" style="swimlane;fontStyle=1;align=center;verticalAlign=top;childLayout=stackLayout;horizontal=1;startSize=26;horizontalStack=0;resizeParent=1;resizeParentMax=0;resizeLast=0;collapsible=1;marginBottom=0;whiteSpace=wrap;html=1;" parent="1" vertex="1">
          <mxGeometry x="20" y="50" width="440" height="190" as="geometry" />
        </mxCell>
        <mxCell id="FmJL9uus3i0918vet48l-2" value="+ valid_extensions : String[]" style="text;strokeColor=none;fillColor=none;align=left;verticalAlign=top;spacingLeft=4;spacingRight=4;overflow=hidden;rotatable=0;points=[[0,0.5],[1,0.5]];portConstraint=eastwest;whiteSpace=wrap;html=1;" parent="FmJL9uus3i0918vet48l-1" vertex="1">
          <mxGeometry y="26" width="440" height="26" as="geometry" />
        </mxCell>
        <mxCell id="FmJL9uus3i0918vet48l-3" value="" style="line;strokeWidth=1;fillColor=none;align=left;verticalAlign=middle;spacingTop=-1;spacingLeft=3;spacingRight=3;rotatable=0;labelPosition=right;points=[];portConstraint=eastwest;strokeColor=inherit;" parent="FmJL9uus3i0918vet48l-1" vertex="1">
          <mxGeometry y="52" width="440" height="8" as="geometry" />
        </mxCell>
        <mxCell id="FmJL9uus3i0918vet48l-4" value="+ downloader(in url : String, in save_directory : String): void" style="text;strokeColor=none;fillColor=none;align=left;verticalAlign=top;spacingLeft=4;spacingRight=4;overflow=hidden;rotatable=0;points=[[0,0.5],[1,0.5]];portConstraint=eastwest;whiteSpace=wrap;html=1;" parent="FmJL9uus3i0918vet48l-1" vertex="1">
          <mxGeometry y="60" width="440" height="26" as="geometry" />
        </mxCell>
        <mxCell id="CcudhSc2t-aaziXjAlaI-1" value="- downloadable_parser(in url : String, in file_type : String): String[]" style="text;strokeColor=none;fillColor=none;align=left;verticalAlign=top;spacingLeft=4;spacingRight=4;overflow=hidden;rotatable=0;points=[[0,0.5],[1,0.5]];portConstraint=eastwest;whiteSpace=wrap;html=1;" parent="FmJL9uus3i0918vet48l-1" vertex="1">
          <mxGeometry y="86" width="440" height="26" as="geometry" />
        </mxCell>
        <mxCell id="CcudhSc2t-aaziXjAlaI-2" value="- get_file_name(in url : String): String" style="text;strokeColor=none;fillColor=none;align=left;verticalAlign=top;spacingLeft=4;spacingRight=4;overflow=hidden;rotatable=0;points=[[0,0.5],[1,0.5]];portConstraint=eastwest;whiteSpace=wrap;html=1;" parent="FmJL9uus3i0918vet48l-1" vertex="1">
          <mxGeometry y="112" width="440" height="26" as="geometry" />
        </mxCell>
        <mxCell id="CcudhSc2t-aaziXjAlaI-3" value="- download(in url : String, in file_type : String, in save_directory : String): void" style="text;strokeColor=none;fillColor=none;align=left;verticalAlign=top;spacingLeft=4;spacingRight=4;overflow=hidden;rotatable=0;points=[[0,0.5],[1,0.5]];portConstraint=eastwest;whiteSpace=wrap;html=1;" parent="FmJL9uus3i0918vet48l-1" vertex="1">
          <mxGeometry y="138" width="440" height="26" as="geometry" />
        </mxCell>
        <mxCell id="CcudhSc2t-aaziXjAlaI-4" value="- get_data_links(): dictionary" style="text;strokeColor=none;fillColor=none;align=left;verticalAlign=top;spacingLeft=4;spacingRight=4;overflow=hidden;rotatable=0;points=[[0,0.5],[1,0.5]];portConstraint=eastwest;whiteSpace=wrap;html=1;" parent="FmJL9uus3i0918vet48l-1" vertex="1">
          <mxGeometry y="164" width="440" height="26" as="geometry" />
        </mxCell>
        <mxCell id="cgWqPLkvgEi0CLSmqvAq-1" value="DataHandler" style="swimlane;fontStyle=1;align=center;verticalAlign=top;childLayout=stackLayout;horizontal=1;startSize=26;horizontalStack=0;resizeParent=1;resizeParentMax=0;resizeLast=0;collapsible=1;marginBottom=0;whiteSpace=wrap;html=1;movable=1;resizable=1;rotatable=1;deletable=1;editable=1;locked=0;connectable=1;container=0;" vertex="1" parent="1">
          <mxGeometry x="530" y="50" width="440" height="410" as="geometry">
            <mxRectangle x="20" y="320" width="110" height="30" as="alternateBounds" />
          </mxGeometry>
        </mxCell>
        <mxCell id="cgWqPLkvgEi0CLSmqvAq-2" value="- data_directory: String" style="text;strokeColor=none;fillColor=none;align=left;verticalAlign=top;spacingLeft=4;spacingRight=4;overflow=hidden;rotatable=0;points=[[0,0.5],[1,0.5]];portConstraint=eastwest;whiteSpace=wrap;html=1;" vertex="1" parent="1">
          <mxGeometry x="530" y="76" width="440" height="84" as="geometry" />
        </mxCell>
        <mxCell id="cgWqPLkvgEi0CLSmqvAq-3" value="" style="line;strokeWidth=1;fillColor=none;align=left;verticalAlign=middle;spacingTop=-1;spacingLeft=3;spacingRight=3;rotatable=0;labelPosition=right;points=[];portConstraint=eastwest;strokeColor=inherit;" vertex="1" parent="1">
          <mxGeometry x="530" y="102" width="440" height="8" as="geometry" />
        </mxCell>
        <mxCell id="cgWqPLkvgEi0CLSmqvAq-4" value="+ sort_arenas_by_name(): void" style="text;strokeColor=none;fillColor=none;align=left;verticalAlign=top;spacingLeft=4;spacingRight=4;overflow=hidden;rotatable=0;points=[[0,0.5],[1,0.5]];portConstraint=eastwest;whiteSpace=wrap;html=1;" vertex="1" parent="1">
          <mxGeometry x="530" y="110" width="440" height="26" as="geometry" />
        </mxCell>
        <mxCell id="cgWqPLkvgEi0CLSmqvAq-5" value="+ sort_parks_by_name (): void" style="text;strokeColor=none;fillColor=none;align=left;verticalAlign=top;spacingLeft=4;spacingRight=4;overflow=hidden;rotatable=0;points=[[0,0.5],[1,0.5]];portConstraint=eastwest;whiteSpace=wrap;html=1;" vertex="1" parent="1">
          <mxGeometry x="530" y="136" width="440" height="26" as="geometry" />
        </mxCell>
        <mxCell id="cgWqPLkvgEi0CLSmqvAq-6" value="+ sort_community_centers_by_type(): void" style="text;strokeColor=none;fillColor=none;align=left;verticalAlign=top;spacingLeft=4;spacingRight=4;overflow=hidden;rotatable=0;points=[[0,0.5],[1,0.5]];portConstraint=eastwest;whiteSpace=wrap;html=1;" vertex="1" parent="1">
          <mxGeometry x="530" y="162" width="440" height="26" as="geometry" />
        </mxCell>
        <mxCell id="cgWqPLkvgEi0CLSmqvAq-7" value="+ sort_hospitals_by_name (): void" style="text;strokeColor=none;fillColor=none;align=left;verticalAlign=top;spacingLeft=4;spacingRight=4;overflow=hidden;rotatable=0;points=[[0,0.5],[1,0.5]];portConstraint=eastwest;whiteSpace=wrap;html=1;" vertex="1" parent="1">
          <mxGeometry x="530" y="188" width="440" height="26" as="geometry" />
        </mxCell>
        <mxCell id="cgWqPLkvgEi0CLSmqvAq-8" value="&lt;div&gt;+ sort_libraries_by_name(): void&lt;/div&gt;&lt;div&gt;&lt;br&gt;&lt;/div&gt;&lt;div&gt;&lt;br&gt;&lt;/div&gt;&lt;div&gt;&lt;br&gt;&lt;/div&gt;" style="text;strokeColor=none;fillColor=none;align=left;verticalAlign=top;spacingLeft=4;spacingRight=4;overflow=hidden;rotatable=0;points=[[0,0.5],[1,0.5]];portConstraint=eastwest;whiteSpace=wrap;html=1;" vertex="1" parent="1">
          <mxGeometry x="530" y="214" width="440" height="26" as="geometry" />
        </mxCell>
        <mxCell id="cgWqPLkvgEi0CLSmqvAq-39" value="&lt;div&gt;+ sort_fire_stations_by_name(): void&lt;/div&gt;&lt;div&gt;&lt;br&gt;&lt;/div&gt;&lt;div&gt;&lt;br&gt;&lt;/div&gt;&lt;div&gt;&lt;br&gt;&lt;/div&gt;" style="text;strokeColor=none;fillColor=none;align=left;verticalAlign=top;spacingLeft=4;spacingRight=4;overflow=hidden;rotatable=0;points=[[0,0.5],[1,0.5]];portConstraint=eastwest;whiteSpace=wrap;html=1;" vertex="1" parent="1">
          <mxGeometry x="530" y="242" width="440" height="26" as="geometry" />
        </mxCell>
        <mxCell id="cgWqPLkvgEi0CLSmqvAq-40" value="+ search_parks(keyword: String): dataframe" style="text;strokeColor=none;fillColor=none;align=left;verticalAlign=top;spacingLeft=4;spacingRight=4;overflow=hidden;rotatable=0;points=[[0,0.5],[1,0.5]];portConstraint=eastwest;whiteSpace=wrap;html=1;" vertex="1" parent="1">
          <mxGeometry x="531" y="294" width="440" height="26" as="geometry" />
        </mxCell>
        <mxCell id="cgWqPLkvgEi0CLSmqvAq-41" value="+ search_community_centres(keyword: String): dataframe" style="text;strokeColor=none;fillColor=none;align=left;verticalAlign=top;spacingLeft=4;spacingRight=4;overflow=hidden;rotatable=0;points=[[0,0.5],[1,0.5]];portConstraint=eastwest;whiteSpace=wrap;html=1;" vertex="1" parent="1">
          <mxGeometry x="530" y="320" width="440" height="26" as="geometry" />
        </mxCell>
        <mxCell id="cgWqPLkvgEi0CLSmqvAq-42" value="+ search_hospitals(keyword: String): dataframe" style="text;strokeColor=none;fillColor=none;align=left;verticalAlign=top;spacingLeft=4;spacingRight=4;overflow=hidden;rotatable=0;points=[[0,0.5],[1,0.5]];portConstraint=eastwest;whiteSpace=wrap;html=1;" vertex="1" parent="1">
          <mxGeometry x="530" y="346" width="440" height="26" as="geometry" />
        </mxCell>
        <mxCell id="cgWqPLkvgEi0CLSmqvAq-43" value="+ search_libraries(keyword: String): dataframe" style="text;strokeColor=none;fillColor=none;align=left;verticalAlign=top;spacingLeft=4;spacingRight=4;overflow=hidden;rotatable=0;points=[[0,0.5],[1,0.5]];portConstraint=eastwest;whiteSpace=wrap;html=1;" vertex="1" parent="1">
          <mxGeometry x="530" y="372" width="440" height="26" as="geometry" />
        </mxCell>
        <mxCell id="cgWqPLkvgEi0CLSmqvAq-45" value="&lt;div&gt;+ sort_schools_by_name(): void&lt;/div&gt;&lt;div&gt;&lt;br&gt;&lt;/div&gt;&lt;div&gt;&lt;br&gt;&lt;/div&gt;&lt;div&gt;&lt;br&gt;&lt;/div&gt;" style="text;strokeColor=none;fillColor=none;align=left;verticalAlign=top;spacingLeft=4;spacingRight=4;overflow=hidden;rotatable=0;points=[[0,0.5],[1,0.5]];portConstraint=eastwest;whiteSpace=wrap;html=1;" vertex="1" parent="1">
          <mxGeometry x="530" y="268" width="440" height="26" as="geometry" />
        </mxCell>
        <mxCell id="cgWqPLkvgEi0CLSmqvAq-46" value="+ search_schools(keyword: String): dataframe" style="text;strokeColor=none;fillColor=none;align=left;verticalAlign=top;spacingLeft=4;spacingRight=4;overflow=hidden;rotatable=0;points=[[0,0.5],[1,0.5]];portConstraint=eastwest;whiteSpace=wrap;html=1;" vertex="1" parent="1">
          <mxGeometry x="530" y="424" width="440" height="26" as="geometry" />
        </mxCell>
        <mxCell id="cgWqPLkvgEi0CLSmqvAq-47" value="+search_fire_stations(keyword: String): dataframe" style="text;strokeColor=none;fillColor=none;align=left;verticalAlign=top;spacingLeft=4;spacingRight=4;overflow=hidden;rotatable=0;points=[[0,0.5],[1,0.5]];portConstraint=eastwest;whiteSpace=wrap;html=1;" vertex="1" parent="1">
          <mxGeometry x="530" y="398" width="440" height="26" as="geometry" />
        </mxCell>
      </root>
    </mxGraphModel>
  </diagram>
</mxfile>
